<svg aria-hidden="true" xmlns="http://www.w3.org/2000/svg" xmlns:xlink="http://www.w3.org/1999/xlink"><symbol viewBox="0 0 391 415" id="G" xmlns="http://www.w3.org/2000/svg">
<path d="M228.756 415C181.766 415 140.97 405.82 106.368 387.461C72.1938 369.102 45.9221 344.125 27.5533 312.531C9.18442 280.509 0 244.645 0 204.938C0 165.658 10.2524 130.435 30.7571 99.267C51.6891 68.0993 79.8831 43.7629 115.339 26.2577C151.223 8.75257 191.164 0 235.164 0C255.241 0 275.105 1.9213 294.756 5.76389C314.406 9.17953 330.212 13.876 342.173 19.8534C345.591 21.9882 347.726 23.9095 348.581 25.6173C349.435 27.3251 350.076 30.3138 350.503 34.5833L356.27 113.997C356.27 115.705 355.202 116.772 353.066 117.199C350.93 117.626 349.435 117.199 348.581 115.918C335.765 83.8966 317.396 59.1332 293.474 41.6281C269.552 24.1229 241.358 15.3704 208.892 15.3704C163.611 15.3704 128.368 30.3138 103.165 60.2006C77.9608 90.0874 65.3589 130.435 65.3589 181.242C65.3589 224.792 73.2618 263.431 89.0675 297.16C104.873 330.463 126.66 356.294 154.426 374.653C182.193 393.012 213.591 402.191 248.62 402.191C265.28 402.191 278.096 400.057 287.067 395.787C296.037 391.517 302.445 384.046 306.29 373.372C310.134 362.698 312.057 347.114 312.057 326.62C312.057 305.273 310.134 290.116 306.29 281.15C302.872 271.757 296.251 265.566 286.426 262.577C276.601 259.589 260.368 258.094 237.727 258.094C235.591 258.094 234.523 256.386 234.523 252.971C234.523 249.555 235.377 247.847 237.086 247.847C270.406 249.982 298.6 251.049 321.668 251.049C343.027 251.049 365.241 250.409 388.309 249.128C390.017 249.128 390.872 250.622 390.872 253.611C391.299 256.6 390.658 258.094 388.949 258.094C382.542 257.667 378.056 258.735 375.493 261.296C372.93 263.431 371.221 267.701 370.367 274.105C369.513 280.509 369.086 291.397 369.086 306.767V333.025C369.086 352.238 369.726 365.687 371.008 373.372C372.289 381.057 372.93 386.394 372.93 389.383C372.93 391.944 372.503 393.652 371.649 394.506C371.221 395.36 369.726 396.214 367.163 397.068C314.193 409.023 268.057 415 228.756 415Z"/>
</symbol><symbol viewBox="0 0 11 20" id="facebook" xmlns="http://www.w3.org/2000/svg">
<path d="M9.11999 3.32003H11V0.14003C10.0897 0.045377 9.17514 -0.00135428 8.25999 2.98641e-05C5.53999 2.98641e-05 3.67999 1.66003 3.67999 4.70003V7.32003H0.609985V10.88H3.67999V20H7.35998V10.88H10.42L10.88 7.32003H7.35998V5.05003C7.35998 4.00003 7.63999 3.32003 9.11999 3.32003Z"/>
</symbol><symbol viewBox="0 0 20 20" id="instagramm" xmlns="http://www.w3.org/2000/svg">
<path d="M15.34 3.46C15.1027 3.46 14.8707 3.53038 14.6733 3.66224C14.476 3.79409 14.3222 3.98151 14.2313 4.20078C14.1405 4.42005 14.1168 4.66133 14.1631 4.89411C14.2094 5.12689 14.3236 5.34071 14.4915 5.50853C14.6593 5.67635 14.8731 5.79064 15.1059 5.83694C15.3387 5.88324 15.5799 5.85948 15.7992 5.76866C16.0185 5.67783 16.2059 5.52402 16.3378 5.32668C16.4696 5.12935 16.54 4.89734 16.54 4.66C16.54 4.34174 16.4136 4.03652 16.1885 3.81147C15.9635 3.58643 15.6583 3.46 15.34 3.46ZM19.94 5.88C19.9206 5.0503 19.7652 4.2294 19.48 3.45C19.2257 2.78313 18.83 2.17928 18.32 1.68C17.8248 1.16743 17.2196 0.774176 16.55 0.53C15.7727 0.236161 14.9508 0.07721 14.12 0.0599999C13.06 -5.58794e-08 12.72 0 10 0C7.28 0 6.94 -5.58794e-08 5.88 0.0599999C5.04915 0.07721 4.22734 0.236161 3.45 0.53C2.78168 0.776649 2.17693 1.16956 1.68 1.68C1.16743 2.17518 0.774176 2.78044 0.53 3.45C0.236161 4.22734 0.07721 5.04915 0.0599999 5.88C-5.58794e-08 6.94 0 7.28 0 10C0 12.72 -5.58794e-08 13.06 0.0599999 14.12C0.07721 14.9508 0.236161 15.7727 0.53 16.55C0.774176 17.2196 1.16743 17.8248 1.68 18.32C2.17693 18.8304 2.78168 19.2234 3.45 19.47C4.22734 19.7638 5.04915 19.9228 5.88 19.94C6.94 20 7.28 20 10 20C12.72 20 13.06 20 14.12 19.94C14.9508 19.9228 15.7727 19.7638 16.55 19.47C17.2196 19.2258 17.8248 18.8326 18.32 18.32C18.8322 17.8226 19.2283 17.2182 19.48 16.55C19.7652 15.7706 19.9206 14.9497 19.94 14.12C19.94 13.06 20 12.72 20 10C20 7.28 20 6.94 19.94 5.88ZM18.14 14C18.1327 14.6348 18.0178 15.2637 17.8 15.86C17.6403 16.2952 17.3839 16.6884 17.05 17.01C16.7256 17.3405 16.3332 17.5964 15.9 17.76C15.3037 17.9778 14.6748 18.0927 14.04 18.1C13.04 18.15 12.67 18.16 10.04 18.16C7.41 18.16 7.04 18.16 6.04 18.1C5.38089 18.1123 4.72459 18.0109 4.1 17.8C3.68578 17.6281 3.31136 17.3728 3 17.05C2.66809 16.7287 2.41484 16.3352 2.26 15.9C2.01586 15.2952 1.88044 14.6519 1.86 14C1.86 13 1.8 12.63 1.8 10C1.8 7.37 1.8 7 1.86 6C1.86448 5.35106 1.98295 4.70795 2.21 4.1C2.38605 3.67791 2.65627 3.30166 3 3C3.30381 2.65617 3.67929 2.3831 4.1 2.2C4.70955 1.98004 5.352 1.86508 6 1.86C7 1.86 7.37 1.8 10 1.8C12.63 1.8 13 1.8 14 1.86C14.6348 1.86728 15.2637 1.98225 15.86 2.2C16.3144 2.36865 16.7223 2.64285 17.05 3C17.3777 3.30718 17.6338 3.68273 17.8 4.1C18.0223 4.70893 18.1373 5.35178 18.14 6C18.19 7 18.2 7.37 18.2 10C18.2 12.63 18.19 13 18.14 14ZM10 4.87C8.98581 4.87198 7.99496 5.17453 7.15265 5.73942C6.31035 6.30431 5.65438 7.1062 5.26763 8.04375C4.88089 8.98131 4.78072 10.0125 4.97979 11.0069C5.17886 12.0014 5.66824 12.9145 6.38608 13.631C7.10392 14.3474 8.01801 14.835 9.01286 15.0321C10.0077 15.2293 11.0387 15.1271 11.9755 14.7385C12.9123 14.35 13.7129 13.6924 14.2761 12.849C14.8394 12.0056 15.14 11.0142 15.14 10C15.1413 9.3251 15.0092 8.65661 14.7512 8.03296C14.4933 7.40931 14.1146 6.84281 13.6369 6.36605C13.1592 5.88929 12.5919 5.51168 11.9678 5.25493C11.3436 4.99818 10.6749 4.86736 10 4.87ZM10 13.33C9.34139 13.33 8.69757 13.1347 8.14995 12.7688C7.60234 12.4029 7.17552 11.8828 6.92348 11.2743C6.67144 10.6659 6.6055 9.99631 6.73398 9.35035C6.86247 8.70439 7.17963 8.11104 7.64533 7.64533C8.11104 7.17963 8.70439 6.86247 9.35035 6.73398C9.99631 6.6055 10.6659 6.67144 11.2743 6.92348C11.8828 7.17552 12.4029 7.60234 12.7688 8.14995C13.1347 8.69757 13.33 9.34139 13.33 10C13.33 10.4373 13.2439 10.8703 13.0765 11.2743C12.9092 11.6784 12.6639 12.0454 12.3547 12.3547C12.0454 12.6639 11.6784 12.9092 11.2743 13.0765C10.8703 13.2439 10.4373 13.33 10 13.33Z"/>
</symbol><symbol viewBox="0 0 47 40" id="quote" xmlns="http://www.w3.org/2000/svg">
<path d="M12.9137 22.8571C15.3163 22.8571 17.2183 23.6592 18.6198 25.2632C20.1214 26.7669 20.8722 28.7719 20.8722 31.2782C20.8722 33.985 19.9712 36.1404 18.1693 37.7444C16.4675 39.2481 14.115 40 11.1118 40C7.60809 40 4.85517 38.6466 2.85304 35.9399C0.951012 33.2331 0 29.3734 0 24.3609C0 19.8496 1.00107 15.6892 3.00319 11.8797C5.00533 7.96992 8.00852 4.06015 12.0128 0.150374C12.1129 0.0501247 12.263 0 12.4633 0C12.7636 0 13.0138 0.150374 13.2141 0.451122C13.4143 0.751876 13.4143 1.0025 13.2141 1.203C8.30884 6.21553 5.85623 12.1303 5.85623 18.9474C5.85623 21.7544 6.35676 23.8095 7.35783 25.1128C8.25879 23.609 10.1108 22.8571 12.9137 22.8571ZM39.0415 22.8571C41.4441 22.8571 43.3461 23.6592 44.7476 25.2632C46.2492 26.7669 47 28.7719 47 31.2782C47 33.985 46.099 36.1404 44.2971 37.7444C42.5953 39.2481 40.2428 40 37.2396 40C33.7359 40 30.983 38.6466 28.9808 35.9399C27.0788 33.2331 26.1278 29.3734 26.1278 24.3609C26.1278 19.8496 27.1289 15.6892 29.131 11.8797C31.1331 7.96992 34.1363 4.06015 38.1406 0.150374C38.2407 0.0501247 38.3908 0 38.5911 0C38.8914 0 39.1416 0.150374 39.3419 0.451122C39.5421 0.751876 39.5421 1.0025 39.3419 1.203C34.4366 6.21553 31.984 12.1303 31.984 18.9474C31.984 21.7544 32.4846 23.8095 33.4856 25.1128C34.3866 23.609 36.2386 22.8571 39.0415 22.8571Z"/>
</symbol><symbol viewBox="0 0 40 10" id="spoon" xmlns="http://www.w3.org/2000/svg">
<g clip-path="url(#eclip0_509_79)">
<path d="M33.5014 9.5C37.0847 9.5 39.9998 7.48129 39.9998 4.99995C39.9998 2.51861 37.0847 0.5 33.5014 0.5C30.112 0.5 27.3219 2.30637 27.0298 4.6018H22.3527V3.6552L-0.000213623 3.6552V6.34446L22.3528 6.34446V5.39798H27.0299C27.3221 7.69352 30.112 9.5 33.5014 9.5ZM21.4896 5.54839L0.863079 5.54839V4.45161H21.4896V5.54839ZM27.866 4.99995C27.866 2.95778 30.3942 1.2964 33.5015 1.2964C36.6088 1.2964 39.137 2.95778 39.137 4.99995C39.137 7.04222 36.6088 8.7037 33.5015 8.7037C30.3942 8.7037 27.866 7.04222 27.866 4.99995Z"/>
</g>
<defs>
<clipPath id="eclip0_509_79">
<rect width="40" height="9" transform="translate(-0.000213623 0.5)"/>
</clipPath>
</defs>
</symbol><symbol viewBox="0 0 23 20" id="twitter" xmlns="http://www.w3.org/2000/svg">
<path d="M22.9912 1.95021C22.9913 1.77357 22.9447 1.60007 22.8559 1.44735C22.7671 1.29464 22.6395 1.16817 22.486 1.08084C22.3324 0.993502 22.1585 0.948416 21.9819 0.95017C21.8053 0.951925 21.6323 1.00046 21.4805 1.09083C20.8952 1.43921 20.265 1.70601 19.6075 1.88383C18.6685 1.07806 17.4708 0.637129 16.2335 0.641636C14.8761 0.643198 13.5724 1.17223 12.5977 2.11702C11.623 3.06181 11.0537 4.3484 11.0099 5.70512C8.33384 5.27838 5.90849 3.88164 4.19631 1.78126C4.09315 1.65609 3.9614 1.55757 3.81217 1.494C3.66295 1.43043 3.50062 1.40368 3.33889 1.41601C3.17725 1.42932 3.02128 1.4818 2.88448 1.56892C2.74768 1.65603 2.63416 1.77516 2.55373 1.91601C2.14126 2.63582 1.90436 3.44276 1.86228 4.27131C1.8202 5.09986 1.97412 5.92666 2.31154 6.68456L2.30959 6.68651C2.15794 6.77991 2.03278 6.91066 1.94609 7.06625C1.85941 7.22185 1.81409 7.39708 1.81447 7.57519C1.81263 7.72211 1.82145 7.86898 1.84084 8.01464C1.94298 9.2729 2.50062 10.4507 3.4092 11.3271C3.34756 11.4446 3.30994 11.5731 3.29854 11.7052C3.28714 11.8373 3.30218 11.9704 3.34279 12.0967C3.7389 13.3308 4.58129 14.3727 5.7051 15.0185C4.56334 15.46 3.33052 15.614 2.11525 15.4668C1.89032 15.4386 1.66248 15.4876 1.4691 15.6059C1.27572 15.7242 1.12828 15.9047 1.05097 16.1178C0.973654 16.3309 0.97106 16.5639 1.04361 16.7787C1.11616 16.9935 1.25955 17.1772 1.45025 17.2998C3.54034 18.646 5.97393 19.3617 8.46002 19.3613C11.2793 19.393 14.03 18.4921 16.2843 16.7988C18.5385 15.1054 20.17 12.7145 20.9248 9.99801C21.2779 8.81464 21.4582 7.58648 21.46 6.35157C21.46 6.28614 21.46 6.21876 21.459 6.15138C21.9811 5.58831 22.3856 4.92668 22.6487 4.20527C22.9118 3.48387 23.0283 2.7172 22.9912 1.95021ZM19.6846 5.16212C19.5194 5.35746 19.4358 5.60891 19.4512 5.86427C19.461 6.02927 19.46 6.19527 19.46 6.35157C19.4579 7.39511 19.305 8.43287 19.0059 9.43263C18.3894 11.744 17.015 13.7817 15.103 15.2192C13.1909 16.6568 10.8517 17.4111 8.46002 17.3613C7.6009 17.3616 6.74474 17.2606 5.90924 17.0606C6.97465 16.7172 7.97083 16.1879 8.85162 15.4971C9.01385 15.3693 9.13257 15.1945 9.19151 14.9967C9.25044 14.7988 9.2467 14.5875 9.18079 14.3918C9.11489 14.1961 8.99005 14.0257 8.8234 13.9038C8.65675 13.7819 8.45647 13.7145 8.25002 13.7109C7.41885 13.698 6.62515 13.363 6.03615 12.7764C6.18557 12.7481 6.33401 12.7129 6.48147 12.6709C6.69748 12.6094 6.88651 12.477 7.01813 12.295C7.14975 12.1131 7.21629 11.8921 7.20704 11.6677C7.1978 11.4433 7.1133 11.2285 6.96715 11.058C6.82101 10.8874 6.62173 10.7711 6.40139 10.7275C5.91893 10.6323 5.46494 10.427 5.0747 10.1277C4.68447 9.82845 4.36852 9.44321 4.15139 9.00196C4.33212 9.02662 4.514 9.04194 4.69631 9.04786C4.91289 9.05113 5.1249 8.98543 5.30169 8.86026C5.47847 8.73509 5.61086 8.55694 5.67971 8.35157C5.74569 8.14433 5.74229 7.92123 5.67004 7.7161C5.59778 7.51096 5.46061 7.33499 5.27932 7.21485C4.83947 6.92182 4.47916 6.52427 4.23068 6.0578C3.98219 5.59134 3.85328 5.07052 3.85549 4.54201C3.85549 4.47561 3.85744 4.4092 3.86135 4.34377C6.10261 6.43402 9.00967 7.66621 12.0703 7.82326C12.2248 7.82934 12.3787 7.80024 12.5203 7.73816C12.6619 7.67607 12.7875 7.58262 12.8877 7.46486C12.9869 7.34596 13.0571 7.20566 13.0929 7.05501C13.1286 6.90437 13.1289 6.74748 13.0937 6.5967C13.0366 6.35806 13.0074 6.11357 13.0068 5.86818C13.0077 5.01271 13.348 4.19254 13.9529 3.58764C14.5578 2.98274 15.378 2.64251 16.2334 2.64161C16.6736 2.64043 17.1092 2.7305 17.5127 2.90615C17.9163 3.0818 18.2791 3.3392 18.5781 3.66212C18.6935 3.7862 18.8386 3.87871 18.9998 3.93085C19.161 3.98299 19.3329 3.99303 19.499 3.96001C19.9098 3.88006 20.3147 3.7724 20.7109 3.63775C20.4407 4.19072 20.0953 4.70369 19.6846 5.16212Z"/>
</symbol></svg>