<svg aria-hidden="true" xmlns="http://www.w3.org/2000/svg" xmlns:xlink="http://www.w3.org/1999/xlink"><symbol viewBox="0 0 391 415" id="G" xmlns="http://www.w3.org/2000/svg">
<path d="M228.756 415C181.766 415 140.97 405.82 106.368 387.461C72.1938 369.102 45.9221 344.125 27.5533 312.531C9.18442 280.509 0 244.645 0 204.938C0 165.658 10.2524 130.435 30.7571 99.267C51.6891 68.0993 79.8831 43.7629 115.339 26.2577C151.223 8.75257 191.164 0 235.164 0C255.241 0 275.105 1.9213 294.756 5.76389C314.406 9.17953 330.212 13.876 342.173 19.8534C345.591 21.9882 347.726 23.9095 348.581 25.6173C349.435 27.3251 350.076 30.3138 350.503 34.5833L356.27 113.997C356.27 115.705 355.202 116.772 353.066 117.199C350.93 117.626 349.435 117.199 348.581 115.918C335.765 83.8966 317.396 59.1332 293.474 41.6281C269.552 24.1229 241.358 15.3704 208.892 15.3704C163.611 15.3704 128.368 30.3138 103.165 60.2006C77.9608 90.0874 65.3589 130.435 65.3589 181.242C65.3589 224.792 73.2618 263.431 89.0675 297.16C104.873 330.463 126.66 356.294 154.426 374.653C182.193 393.012 213.591 402.191 248.62 402.191C265.28 402.191 278.096 400.057 287.067 395.787C296.037 391.517 302.445 384.046 306.29 373.372C310.134 362.698 312.057 347.114 312.057 326.62C312.057 305.273 310.134 290.116 306.29 281.15C302.872 271.757 296.251 265.566 286.426 262.577C276.601 259.589 260.368 258.094 237.727 258.094C235.591 258.094 234.523 256.386 234.523 252.971C234.523 249.555 235.377 247.847 237.086 247.847C270.406 249.982 298.6 251.049 321.668 251.049C343.027 251.049 365.241 250.409 388.309 249.128C390.017 249.128 390.872 250.622 390.872 253.611C391.299 256.6 390.658 258.094 388.949 258.094C382.542 257.667 378.056 258.735 375.493 261.296C372.93 263.431 371.221 267.701 370.367 274.105C369.513 280.509 369.086 291.397 369.086 306.767V333.025C369.086 352.238 369.726 365.687 371.008 373.372C372.289 381.057 372.93 386.394 372.93 389.383C372.93 391.944 372.503 393.652 371.649 394.506C371.221 395.36 369.726 396.214 367.163 397.068C314.193 409.023 268.057 415 228.756 415Z"/>
</symbol><symbol viewBox="0 0 11 20" id="facebook" xmlns="http://www.w3.org/2000/svg">
<path d="M9.11999 3.32003H11V0.14003C10.0897 0.045377 9.17514 -0.00135428 8.25999 2.98641e-05C5.53999 2.98641e-05 3.67999 1.66003 3.67999 4.70003V7.32003H0.609985V10.88H3.67999V20H7.35998V10.88H10.42L10.88 7.32003H7.35998V5.05003C7.35998 4.00003 7.63999 3.32003 9.11999 3.32003Z"/>
</symbol><symbol viewBox="0 0 52 52" id="hover-inst" xmlns="http://www.w3.org/2000/svg">
<path d="M37.57 11.8299C37.0558 11.8299 36.5531 11.9824 36.1255 12.2681C35.6979 12.5538 35.3647 12.9599 35.1679 13.4349C34.9711 13.91 34.9196 14.4328 35.0199 14.9372C35.1203 15.4415 35.3679 15.9048 35.7315 16.2684C36.0951 16.632 36.5584 16.8796 37.0628 16.98C37.5671 17.0803 38.0899 17.0288 38.565 16.832C39.0401 16.6352 39.4461 16.302 39.7318 15.8744C40.0175 15.4468 40.17 14.9441 40.17 14.4299C40.17 13.7404 39.8961 13.079 39.4085 12.5914C38.9209 12.1038 38.2595 11.8299 37.57 11.8299ZM47.5367 17.0733C47.4945 15.2756 47.1578 13.497 46.54 11.8083C45.9891 10.3634 45.1316 9.05502 44.0267 7.97325C42.9538 6.86267 41.6424 6.01063 40.1917 5.48159C38.5074 4.84493 36.7268 4.50054 34.9267 4.46325C32.63 4.33325 31.8933 4.33325 26 4.33325C20.1066 4.33325 19.37 4.33325 17.0733 4.46325C15.2731 4.50054 13.4926 4.84493 11.8083 5.48159C10.3603 6.01599 9.05 6.8673 7.97331 7.97325C6.86274 9.04614 6.0107 10.3575 5.48165 11.8083C4.84499 13.4925 4.5006 15.2731 4.46331 17.0733C4.33331 19.3699 4.33331 20.1066 4.33331 25.9999C4.33331 31.8933 4.33331 32.6299 4.46331 34.9266C4.5006 36.7268 4.84499 38.5073 5.48165 40.1916C6.0107 41.6423 6.86274 42.9537 7.97331 44.0266C9.05 45.1325 10.3603 45.9838 11.8083 46.5183C13.4926 47.1549 15.2731 47.4993 17.0733 47.5366C19.37 47.6666 20.1066 47.6666 26 47.6666C31.8933 47.6666 32.63 47.6666 34.9267 47.5366C36.7268 47.4993 38.5074 47.1549 40.1917 46.5183C41.6424 45.9892 42.9538 45.1372 44.0267 44.0266C45.1365 42.9488 45.9947 41.6393 46.54 40.1916C47.1578 38.5029 47.4945 36.7243 47.5367 34.9266C47.5367 32.6299 47.6667 31.8933 47.6667 25.9999C47.6667 20.1066 47.6667 19.3699 47.5367 17.0733ZM43.6367 34.6666C43.6209 36.0419 43.3718 37.4046 42.9 38.6966C42.554 39.6395 41.9984 40.4915 41.275 41.1883C40.5722 41.9044 39.722 42.4589 38.7833 42.8133C37.4913 43.2851 36.1287 43.5341 34.7533 43.5499C32.5867 43.6583 31.785 43.6799 26.0866 43.6799C20.3883 43.6799 19.5866 43.6799 17.42 43.5499C15.9919 43.5767 14.5699 43.3568 13.2166 42.8999C12.3192 42.5274 11.5079 41.9743 10.8333 41.2749C10.1142 40.5789 9.56547 39.7262 9.22998 38.7833C8.701 37.4727 8.40761 36.0791 8.36331 34.6666C8.36331 32.4999 8.23331 31.6983 8.23331 25.9999C8.23331 20.3016 8.23331 19.4999 8.36331 17.3333C8.37303 15.9272 8.62971 14.5338 9.12165 13.2166C9.50308 12.3021 10.0886 11.4868 10.8333 10.8333C11.4916 10.0883 12.3051 9.49663 13.2166 9.09992C14.5373 8.62335 15.9293 8.37426 17.3333 8.36325C19.5 8.36325 20.3016 8.23325 26 8.23325C31.6983 8.23325 32.5 8.23325 34.6667 8.36325C36.042 8.37903 37.4047 8.62812 38.6967 9.09992C39.6813 9.46533 40.565 10.0594 41.275 10.8333C41.985 11.4988 42.5398 12.3125 42.9 13.2166C43.3815 14.5359 43.6308 15.9288 43.6367 17.3333C43.745 19.4999 43.7667 20.3016 43.7667 25.9999C43.7667 31.6983 43.745 32.4999 43.6367 34.6666ZM26 14.8849C23.8026 14.8892 21.6557 15.5447 19.8307 16.7687C18.0057 17.9926 16.5845 19.73 15.7465 21.7614C14.9086 23.7928 14.6916 26.0269 15.1229 28.1816C15.5542 30.3363 16.6145 32.3147 18.1698 33.867C19.7251 35.4193 21.7057 36.4758 23.8612 36.9029C26.0167 37.33 28.2504 37.1087 30.2802 36.2668C32.3099 35.4248 34.0446 34.0002 35.2649 32.1728C36.4853 30.3454 37.1366 28.1973 37.1367 25.9999C37.1395 24.5376 36.8533 23.0892 36.2943 21.738C35.7354 20.3867 34.9149 19.1593 33.8799 18.1264C32.8449 17.0934 31.6159 16.2752 30.2635 15.7189C28.9112 15.1626 27.4622 14.8792 26 14.8849ZM26 33.2149C24.573 33.2149 23.178 32.7918 21.9915 31.999C20.805 31.2062 19.8803 30.0793 19.3342 28.761C18.7881 27.4426 18.6452 25.9919 18.9236 24.5923C19.202 23.1928 19.8892 21.9072 20.8982 20.8981C21.9072 19.8891 23.1928 19.2019 24.5924 18.9236C25.992 18.6452 27.4427 18.788 28.761 19.3341C30.0794 19.8802 31.2062 20.805 31.999 21.9915C32.7918 23.178 33.215 24.5729 33.215 25.9999C33.215 26.9474 33.0284 27.8856 32.6658 28.761C32.3032 29.6363 31.7717 30.4317 31.1018 31.1017C30.4318 31.7717 29.6364 32.3031 28.761 32.6657C27.8857 33.0283 26.9475 33.2149 26 33.2149Z"/>
</symbol><symbol viewBox="0 0 20 20" id="instagram" xmlns="http://www.w3.org/2000/svg">
<path d="M15.34 3.46C15.1027 3.46 14.8707 3.53038 14.6733 3.66224C14.476 3.79409 14.3222 3.98151 14.2313 4.20078C14.1405 4.42005 14.1168 4.66133 14.1631 4.89411C14.2094 5.12689 14.3236 5.34071 14.4915 5.50853C14.6593 5.67635 14.8731 5.79064 15.1059 5.83694C15.3387 5.88324 15.5799 5.85948 15.7992 5.76866C16.0185 5.67783 16.2059 5.52402 16.3378 5.32668C16.4696 5.12935 16.54 4.89734 16.54 4.66C16.54 4.34174 16.4136 4.03652 16.1885 3.81147C15.9635 3.58643 15.6583 3.46 15.34 3.46ZM19.94 5.88C19.9206 5.0503 19.7652 4.2294 19.48 3.45C19.2257 2.78313 18.83 2.17928 18.32 1.68C17.8248 1.16743 17.2196 0.774176 16.55 0.53C15.7727 0.236161 14.9508 0.07721 14.12 0.0599999C13.06 -5.58794e-08 12.72 0 10 0C7.28 0 6.94 -5.58794e-08 5.88 0.0599999C5.04915 0.07721 4.22734 0.236161 3.45 0.53C2.78168 0.776649 2.17693 1.16956 1.68 1.68C1.16743 2.17518 0.774176 2.78044 0.53 3.45C0.236161 4.22734 0.07721 5.04915 0.0599999 5.88C-5.58794e-08 6.94 0 7.28 0 10C0 12.72 -5.58794e-08 13.06 0.0599999 14.12C0.07721 14.9508 0.236161 15.7727 0.53 16.55C0.774176 17.2196 1.16743 17.8248 1.68 18.32C2.17693 18.8304 2.78168 19.2234 3.45 19.47C4.22734 19.7638 5.04915 19.9228 5.88 19.94C6.94 20 7.28 20 10 20C12.72 20 13.06 20 14.12 19.94C14.9508 19.9228 15.7727 19.7638 16.55 19.47C17.2196 19.2258 17.8248 18.8326 18.32 18.32C18.8322 17.8226 19.2283 17.2182 19.48 16.55C19.7652 15.7706 19.9206 14.9497 19.94 14.12C19.94 13.06 20 12.72 20 10C20 7.28 20 6.94 19.94 5.88ZM18.14 14C18.1327 14.6348 18.0178 15.2637 17.8 15.86C17.6403 16.2952 17.3839 16.6884 17.05 17.01C16.7256 17.3405 16.3332 17.5964 15.9 17.76C15.3037 17.9778 14.6748 18.0927 14.04 18.1C13.04 18.15 12.67 18.16 10.04 18.16C7.41 18.16 7.04 18.16 6.04 18.1C5.38089 18.1123 4.72459 18.0109 4.1 17.8C3.68578 17.6281 3.31136 17.3728 3 17.05C2.66809 16.7287 2.41484 16.3352 2.26 15.9C2.01586 15.2952 1.88044 14.6519 1.86 14C1.86 13 1.8 12.63 1.8 10C1.8 7.37 1.8 7 1.86 6C1.86448 5.35106 1.98295 4.70795 2.21 4.1C2.38605 3.67791 2.65627 3.30166 3 3C3.30381 2.65617 3.67929 2.3831 4.1 2.2C4.70955 1.98004 5.352 1.86508 6 1.86C7 1.86 7.37 1.8 10 1.8C12.63 1.8 13 1.8 14 1.86C14.6348 1.86728 15.2637 1.98225 15.86 2.2C16.3144 2.36865 16.7223 2.64285 17.05 3C17.3777 3.30718 17.6338 3.68273 17.8 4.1C18.0223 4.70893 18.1373 5.35178 18.14 6C18.19 7 18.2 7.37 18.2 10C18.2 12.63 18.19 13 18.14 14ZM10 4.87C8.98581 4.87198 7.99496 5.17453 7.15265 5.73942C6.31035 6.30431 5.65438 7.1062 5.26763 8.04375C4.88089 8.98131 4.78072 10.0125 4.97979 11.0069C5.17886 12.0014 5.66824 12.9145 6.38608 13.631C7.10392 14.3474 8.01801 14.835 9.01286 15.0321C10.0077 15.2293 11.0387 15.1271 11.9755 14.7385C12.9123 14.35 13.7129 13.6924 14.2761 12.849C14.8394 12.0056 15.14 11.0142 15.14 10C15.1413 9.3251 15.0092 8.65661 14.7512 8.03296C14.4933 7.40931 14.1146 6.84281 13.6369 6.36605C13.1592 5.88929 12.5919 5.51168 11.9678 5.25493C11.3436 4.99818 10.6749 4.86736 10 4.87ZM10 13.33C9.34139 13.33 8.69757 13.1347 8.14995 12.7688C7.60234 12.4029 7.17552 11.8828 6.92348 11.2743C6.67144 10.6659 6.6055 9.99631 6.73398 9.35035C6.86247 8.70439 7.17963 8.11104 7.64533 7.64533C8.11104 7.17963 8.70439 6.86247 9.35035 6.73398C9.99631 6.6055 10.6659 6.67144 11.2743 6.92348C11.8828 7.17552 12.4029 7.60234 12.7688 8.14995C13.1347 8.69757 13.33 9.34139 13.33 10C13.33 10.4373 13.2439 10.8703 13.0765 11.2743C12.9092 11.6784 12.6639 12.0454 12.3547 12.3547C12.0454 12.6639 11.6784 12.9092 11.2743 13.0765C10.8703 13.2439 10.4373 13.33 10 13.33Z"/>
</symbol><symbol viewBox="0 0 47 40" id="quote" xmlns="http://www.w3.org/2000/svg">
<path d="M12.9137 22.8571C15.3163 22.8571 17.2183 23.6592 18.6198 25.2632C20.1214 26.7669 20.8722 28.7719 20.8722 31.2782C20.8722 33.985 19.9712 36.1404 18.1693 37.7444C16.4675 39.2481 14.115 40 11.1118 40C7.60809 40 4.85517 38.6466 2.85304 35.9399C0.951012 33.2331 0 29.3734 0 24.3609C0 19.8496 1.00107 15.6892 3.00319 11.8797C5.00533 7.96992 8.00852 4.06015 12.0128 0.150374C12.1129 0.0501247 12.263 0 12.4633 0C12.7636 0 13.0138 0.150374 13.2141 0.451122C13.4143 0.751876 13.4143 1.0025 13.2141 1.203C8.30884 6.21553 5.85623 12.1303 5.85623 18.9474C5.85623 21.7544 6.35676 23.8095 7.35783 25.1128C8.25879 23.609 10.1108 22.8571 12.9137 22.8571ZM39.0415 22.8571C41.4441 22.8571 43.3461 23.6592 44.7476 25.2632C46.2492 26.7669 47 28.7719 47 31.2782C47 33.985 46.099 36.1404 44.2971 37.7444C42.5953 39.2481 40.2428 40 37.2396 40C33.7359 40 30.983 38.6466 28.9808 35.9399C27.0788 33.2331 26.1278 29.3734 26.1278 24.3609C26.1278 19.8496 27.1289 15.6892 29.131 11.8797C31.1331 7.96992 34.1363 4.06015 38.1406 0.150374C38.2407 0.0501247 38.3908 0 38.5911 0C38.8914 0 39.1416 0.150374 39.3419 0.451122C39.5421 0.751876 39.5421 1.0025 39.3419 1.203C34.4366 6.21553 31.984 12.1303 31.984 18.9474C31.984 21.7544 32.4846 23.8095 33.4856 25.1128C34.3866 23.609 36.2386 22.8571 39.0415 22.8571Z"/>
</symbol><symbol viewBox="0 0 241 93" id="signature" xmlns="http://www.w3.org/2000/svg">
<path d="M69.2188 23.5312C69.0521 23.2396 69.8438 22.2188 71.5938 20.4688C73.3646 18.6979 74.25 17.3958 74.25 16.5625C74.25 15.9583 74.1458 15.5938 73.9375 15.4688C73.7292 15.3229 73.1354 15.25 72.1562 15.25C70.7396 15.25 68.7604 15.6667 66.2188 16.5C64.1146 17.1667 60.6562 18.6562 55.8438 20.9688C51.0312 23.2812 46.9167 25.4271 43.5 27.4062C39.6458 29.6354 34.7188 32.8229 28.7188 36.9688C22.7188 41.1146 19.0104 43.8958 17.5938 45.3125C17.0729 45.8333 16.0312 48.0521 14.4688 51.9688C14.0521 53.0312 13.7604 53.7604 13.5938 54.1562C13.4271 54.5521 13.2396 55.1042 13.0312 55.8125C12.8229 56.5 12.6875 56.9375 12.625 57.125C12.5833 57.2917 12.5833 57.6146 12.625 58.0938C12.6667 58.5521 12.7188 58.8333 12.7812 58.9375C12.8646 59.0417 13.0625 59.3021 13.375 59.7188C13.6875 60.1354 13.9479 60.4375 14.1562 60.625C14.3646 60.7917 14.75 61.1354 15.3125 61.6562C18.7917 64.8646 23.0104 66.6458 27.9688 67C32.9479 67.3542 38.9375 66.3125 45.9375 63.875C49.125 62.75 51.1979 62.1042 52.1562 61.9375C52.7604 61.8125 53.125 61.8021 53.25 61.9062C53.3958 61.9896 53.4271 62.2708 53.3438 62.75C53.2812 63.1875 53 63.5833 52.5 63.9375C52.0208 64.2708 51.0938 64.7083 49.7188 65.25C41.8854 68.3542 34.8333 69.7396 28.5625 69.4062C22.3125 69.0521 17.2292 66.9896 13.3125 63.2188L10.875 60.9062L9.59375 64.125C6.73958 71.2083 4.71875 77.1458 3.53125 81.9375C2.34375 86.7292 2.26042 89.3229 3.28125 89.7188C3.48958 89.7812 3.66667 89.9271 3.8125 90.1562C3.95833 90.3854 4.03125 90.625 4.03125 90.875C4.03125 91.2917 3.79167 91.5729 3.3125 91.7188C2.85417 91.8854 2.34375 91.8854 1.78125 91.7188C1.23958 91.5729 0.864583 91.2917 0.65625 90.875C0.239583 90.0833 0.09375 88.7188 0.21875 86.7812C0.34375 84.8438 0.71875 82.7083 1.34375 80.375C1.94792 78.0833 2.96875 74.8854 4.40625 70.7812C5.86458 66.6562 7.05208 63.5625 7.96875 61.5C8.63542 59.8542 8.95833 58.0417 8.9375 56.0625C8.875 54.3333 9.125 52.7917 9.6875 51.4375C10.2708 50.0833 11.3333 48.4688 12.875 46.5938C13.4375 45.9062 14.0625 44.9479 14.75 43.7188C15.4375 42.4896 16.0104 41.2708 16.4688 40.0625C17.5104 37.4167 19.4792 31.7708 22.375 23.125C25.2917 14.4792 27.1667 8.70833 28 5.8125C28.6875 3.4375 29.2396 1.90625 29.6562 1.21875C30.0729 0.53125 30.5521 0.354167 31.0938 0.6875C31.6146 1.02083 31.5208 2.46875 30.8125 5.03125C30.125 7.57292 28.1354 13.7708 24.8438 23.625C23.2812 28.2917 21.9688 32.2708 20.9062 35.5625C19.8438 38.8333 19.3333 40.4688 19.375 40.4688C19.4583 40.4688 20.6771 39.6042 23.0312 37.875C30.0938 32.6875 37.7812 27.7917 46.0938 23.1875C54.4062 18.5625 61.1354 15.4479 66.2812 13.8438C68.2188 13.2396 69.9688 12.9167 71.5312 12.875C73.0938 12.8125 74.3021 13.0104 75.1562 13.4688C76.0312 13.9271 76.6146 14.5521 76.9062 15.3438C77.1979 16.1354 77.0729 17.1146 76.5312 18.2812C75.9896 19.4271 75.0625 20.6458 73.75 21.9375C72.7708 22.8958 71.8542 23.5312 71 23.8438C70.1458 24.1354 69.5521 24.0312 69.2188 23.5312ZM71.185 56.8438C71.3933 57.3646 71.1954 57.9167 70.5913 58.5C70.0079 59.0833 68.3725 60.3229 65.685 62.2188C62.6433 64.3854 60.3204 65.7604 58.7163 66.3438C57.1121 66.9271 55.6225 66.9375 54.2475 66.375C52.9975 65.875 52.3413 64.6875 52.2788 62.8125C52.2163 60.9167 52.7579 58.7604 53.9038 56.3438C54.6329 54.8021 55.3621 53.5625 56.0913 52.625C56.8413 51.6667 57.7267 51.0208 58.7475 50.6875C59.81 50.3542 60.6642 50.5417 61.31 51.25C61.9767 51.9375 62.2163 52.75 62.0288 53.6875C61.8413 54.6875 61.1433 55.8438 59.935 57.1562C58.7267 58.4479 57.685 59.0938 56.81 59.0938C56.1225 59.0938 55.6746 59.2083 55.4663 59.4375C55.2579 59.6458 55.0496 60.2604 54.8413 61.2812C54.6538 62.2604 54.7683 63.0625 55.185 63.6875C55.5183 64.1042 55.8204 64.3333 56.0913 64.375C56.3621 64.3958 56.935 64.2812 57.81 64.0312C58.9975 63.6979 61.2996 62.2917 64.7163 59.8125C66.0288 58.8542 67.06 58.125 67.81 57.625C68.56 57.1042 69.185 56.7396 69.685 56.5312C70.185 56.3021 70.5288 56.2292 70.7163 56.3125C70.9038 56.375 71.06 56.5521 71.185 56.8438ZM57.7788 54.5C57.0288 55.5833 56.7996 56.1979 57.0913 56.3438C57.2996 56.4062 57.6642 56.1979 58.185 55.7188C58.9767 54.9688 59.3725 54.375 59.3725 53.9375C59.3725 53.375 59.185 53.1875 58.81 53.375C58.4975 53.5208 58.1538 53.8958 57.7788 54.5ZM87.4638 53.4375C88.4221 53.0833 89.1304 53.0208 89.5888 53.25C90.0679 53.4583 90.1721 53.8958 89.9013 54.5625C89.6096 55.3333 88.5992 55.875 86.87 56.1875C85.1617 56.5 84.0054 56.3542 83.4013 55.75C83.1304 55.4792 82.9221 55.375 82.7763 55.4375C82.4429 55.5625 81.5158 56.5938 79.995 58.5312C79.5992 59.0521 78.7971 60.0938 77.5888 61.6562C75.8179 64.0104 74.5679 65.5417 73.8388 66.25C73.1304 66.9375 72.4533 67.3125 71.8075 67.375C71.2033 67.4375 70.7763 67.4062 70.5263 67.2812C70.2763 67.1354 70.0679 66.8438 69.9013 66.4062C69.4221 64.9688 69.6096 62.1875 70.4638 58.0625C71.0471 55.0833 71.7554 53.5625 72.5888 53.5C72.7971 53.5 72.995 53.5938 73.1825 53.7812C73.3908 54.0104 73.4638 54.4583 73.4013 55.125C73.3596 55.7708 73.1929 56.875 72.9013 58.4375C72.7554 59.1667 72.6304 59.7812 72.5263 60.2812C72.4429 60.7812 72.37 61.2604 72.3075 61.7188C72.245 62.1562 72.2033 62.5104 72.1825 62.7812C72.1617 63.0312 72.1721 63.25 72.2138 63.4375C72.2554 63.6042 72.3075 63.6979 72.37 63.7188C72.4533 63.7396 72.5783 63.7083 72.745 63.625C72.9117 63.5208 73.0888 63.375 73.2763 63.1875C73.4638 62.9792 73.7033 62.6979 73.995 62.3438C74.3075 61.9688 74.62 61.5833 74.9325 61.1875C75.2658 60.7708 75.6617 60.25 76.12 59.625C77.1408 58.25 79.1096 55.6146 82.0263 51.7188L84.9325 47.8438C85.2658 47.4062 85.495 47.1771 85.62 47.1562C85.7658 47.1146 86.0158 47.2604 86.37 47.5938C86.7242 47.9479 86.8804 48.2917 86.8388 48.625C86.8179 48.9583 86.5679 49.7083 86.0888 50.875C85.4013 52.5417 85.1617 53.4896 85.37 53.7188C85.62 53.9688 86.3179 53.875 87.4638 53.4375ZM114.618 56.3125C115.18 56.25 115.576 56.4583 115.805 56.9375C116.034 57.4167 115.888 57.9688 115.368 58.5938C114.951 59.0521 114.493 59.5417 113.993 60.0625C113.493 60.5625 112.649 61.3333 111.461 62.375C110.274 63.4167 109.086 64.3542 107.899 65.1875C106.711 66 105.305 66.7917 103.68 67.5625C102.055 68.3333 100.482 68.8646 98.9613 69.1562C96.7529 69.5729 94.7946 69.2396 93.0863 68.1562C91.3779 67.0521 90.4196 65.5104 90.2113 63.5312C90.0029 61.4479 90.1279 59.2708 90.5863 57C90.9821 55.0833 91.4717 53.6979 92.055 52.8438C92.6383 51.9896 93.2529 51.7708 93.8988 52.1875C94.1904 52.3542 94.3363 52.75 94.3363 53.375C94.3363 53.9792 94.2008 54.3646 93.93 54.5312C93.6383 54.7188 93.305 56.0729 92.93 58.5938C92.68 60.1979 92.555 61.3333 92.555 62C92.5758 62.6458 92.7425 63.3438 93.055 64.0938C93.6383 65.5104 94.7738 66.3021 96.4613 66.4688C98.1696 66.6146 99.9508 66.3125 101.805 65.5625C103.68 64.8125 105.399 63.8333 106.961 62.625C107.94 61.8542 109.034 60.9271 110.243 59.8438C111.472 58.7396 112.43 57.8854 113.118 57.2812C113.826 56.6771 114.326 56.3542 114.618 56.3125ZM95.5863 48.375C95.3571 48.6042 95.0654 48.7188 94.7113 48.7188C94.3571 48.7188 94.055 48.6042 93.805 48.375C93.5758 48.125 93.4613 47.8229 93.4613 47.4688C93.4613 47.1146 93.5758 46.8229 93.805 46.5938C94.055 46.3438 94.3571 46.2188 94.7113 46.2188C95.0654 46.2188 95.3571 46.3438 95.5863 46.5938C95.8363 46.8229 95.9613 47.1146 95.9613 47.4688C95.9613 47.8229 95.8363 48.125 95.5863 48.375ZM140.177 56.9375C140.469 56.8125 140.75 56.8542 141.021 57.0625C141.313 57.2708 141.469 57.5833 141.49 58C141.532 58.3958 141.365 58.8646 140.99 59.4062C140.427 60.1562 139.344 61.1875 137.74 62.5C136.157 63.8125 135.084 64.5938 134.521 64.8438C132.313 65.7604 130.365 65.8021 128.677 64.9688C127.907 64.5938 127.24 63.8854 126.677 62.8438C126.136 61.8021 125.75 60.8646 125.521 60.0312C125.292 59.1771 125.157 58.75 125.115 58.75C124.761 58.75 124.146 59.2083 123.271 60.125C122.396 61.0417 121.605 62.0521 120.896 63.1562C119 66.1562 117.48 67.7604 116.334 67.9688C115.771 68.0729 115.375 67.8021 115.146 67.1562C115 66.8021 115.198 64.875 115.74 61.375C116.282 57.875 116.823 55.0104 117.365 52.7812C117.615 51.8438 117.969 51.1875 118.427 50.8125C118.886 50.4375 119.323 50.4479 119.74 50.8438C120.032 51.1354 119.865 53.0312 119.24 56.5312C118.594 60.0729 118.271 61.9167 118.271 62.0625C118.271 62.1458 118.459 61.9583 118.834 61.5C119.084 61.2083 119.375 60.8333 119.709 60.375C120.625 59.125 121.73 58.0521 123.021 57.1562C124.334 56.2396 125.355 55.8333 126.084 55.9375C126.542 56 126.886 56.2083 127.115 56.5625C127.344 56.9167 127.594 57.6458 127.865 58.75C128.573 61.5833 129.875 63 131.771 63C132.521 63 133.375 62.6979 134.334 62.0938C135.292 61.4896 136.136 60.8333 136.865 60.125C137.594 59.3958 138.282 58.6979 138.927 58.0312C139.594 57.3646 140.011 57 140.177 56.9375ZM207.829 71.3125C207.579 71.4167 206.485 71.5625 204.548 71.75C202.631 71.9167 199.891 72.3333 196.329 73C192.766 73.6458 189.058 74.5729 185.204 75.7812C180.558 77.2396 176.308 79.1354 172.454 81.4688C168.62 83.8229 165.339 86.4792 162.61 89.4375C161.214 90.9792 160.298 91.8958 159.86 92.1875C159.443 92.5 159.016 92.5104 158.579 92.2188C158.287 92.0312 158.131 91.8229 158.11 91.5938C158.11 91.3646 158.214 90.9792 158.423 90.4375C159.235 88.4167 160.975 84.3333 163.641 78.1875C169.475 64.5208 173.391 55.0833 175.391 49.875C177.412 44.6667 179.412 38.75 181.391 32.125C183.016 26.6667 183.777 23.8333 183.673 23.625C183.631 23.5208 183.443 23.7188 183.11 24.2188C183.089 24.2396 183.068 24.2604 183.048 24.2812C182.61 24.9062 182.131 25.1667 181.61 25.0625C181.11 24.9583 180.86 24.5417 180.86 23.8125C180.86 23.5417 181.068 22.9792 181.485 22.125C181.923 21.25 182.443 20.3438 183.048 19.4062C184.527 16.9479 185.589 14.8542 186.235 13.125C186.964 11.2708 187.61 10.3438 188.173 10.3438C188.735 10.3438 189.12 10.5104 189.329 10.8438C189.62 11.3021 188.6 15.7083 186.266 24.0625C183.954 32.3958 181.756 39.5521 179.673 45.5312C178.027 50.2396 175.902 55.6458 173.298 61.75C167.027 76.6458 163.891 84.1667 163.891 84.3125C163.891 84.3542 164.048 84.2708 164.36 84.0625C164.673 83.8542 165.11 83.5417 165.673 83.125C166.256 82.7292 166.85 82.2917 167.454 81.8125C170.35 79.6458 174.568 77.4688 180.11 75.2812C185.673 73.0938 190.204 71.6667 193.704 71C195.537 70.6458 197.506 70.3333 199.61 70.0625C201.714 69.7708 203.527 69.5417 205.048 69.375C206.589 69.2083 207.402 69.1146 207.485 69.0938C208.006 68.9896 208.381 69.0938 208.61 69.4062C208.839 69.6979 208.87 70.0417 208.704 70.4375C208.558 70.8333 208.266 71.125 207.829 71.3125ZM217.826 59.625C219.868 57.4167 221.087 56.625 221.482 57.25C221.607 57.4583 221.67 57.8021 221.67 58.2812C221.67 58.7604 221.16 59.5938 220.139 60.7812C219.139 61.9688 218.035 63.0625 216.826 64.0625C215.639 65.0417 214.805 65.5312 214.326 65.5312C213.014 65.5312 212.16 64.9688 211.764 63.8438C211.368 62.7188 211.451 61.125 212.014 59.0625C212.68 56.7292 212.441 56.4479 211.295 58.2188C211.024 58.6354 210.712 59.1562 210.357 59.7812C208.128 63.7812 206.368 66.125 205.076 66.8125C204.451 67.1667 204.024 67.3542 203.795 67.375C203.587 67.375 203.139 67.2396 202.451 66.9688C201.722 66.6771 201.253 66.0521 201.045 65.0938C200.837 64.1146 200.837 62.5104 201.045 60.2812C201.524 54.8229 202.295 51.3125 203.357 49.75C203.837 49.0417 204.316 48.9271 204.795 49.4062C205.191 49.8021 205.128 51.2604 204.607 53.7812C204.232 55.5104 203.93 57.2292 203.701 58.9375C203.472 60.6458 203.357 61.9896 203.357 62.9688C203.357 63.9271 203.462 64.4583 203.67 64.5625C204.482 64.5625 206.41 61.8542 209.451 56.4375C210.826 54.0208 211.972 52.2708 212.889 51.1875C213.805 50.0833 214.618 49.5312 215.326 49.5312C216.118 49.5312 216.545 50.0104 216.607 50.9688C216.67 51.9271 216.368 53.4688 215.701 55.5938C214.43 59.7604 213.941 62.0625 214.232 62.5C214.503 62.8958 215.472 62.1875 217.139 60.375C217.347 60.1458 217.576 59.8958 217.826 59.625ZM239.324 55.4688C239.74 55.3646 240.022 55.4688 240.167 55.7812C240.334 56.0938 240.355 56.4583 240.23 56.875C240.126 57.2917 239.938 57.5833 239.667 57.75C239.459 57.875 239.136 57.9896 238.699 58.0938C238.261 58.1979 237.49 58.4375 236.386 58.8125C235.303 59.1875 233.99 59.7083 232.449 60.375C230.178 61.3542 228.647 62.0938 227.855 62.5938C227.084 63.0729 226.397 63.7396 225.792 64.5938C224.813 65.9688 223.813 66.875 222.792 67.3125C221.792 67.7292 220.834 67.6562 219.917 67.0938C219.334 66.7188 218.917 66.2604 218.667 65.7188C218.417 65.1771 218.334 64.6458 218.417 64.125C218.501 63.5833 218.584 63.1667 218.667 62.875C218.772 62.5833 218.876 62.3438 218.98 62.1562C219.188 61.8021 219.47 61.4583 219.824 61.125C220.178 60.7708 220.501 60.5312 220.792 60.4062C221.522 60.1146 221.886 59.6042 221.886 58.875C221.907 58.0833 222.417 56.8542 223.417 55.1875C224.438 53.5208 225.355 52.3958 226.167 51.8125C227.292 51 228.209 50.5625 228.917 50.5C229.647 50.4375 230.272 50.7083 230.792 51.3125C231.105 51.6667 231.313 51.9479 231.417 52.1562C231.542 52.3438 231.636 52.7083 231.699 53.25C231.761 53.7917 231.678 54.4375 231.449 55.1875C231.345 55.6667 231.188 56.1667 230.98 56.6875C230.792 57.2083 230.636 57.6146 230.511 57.9062C230.386 58.1979 230.324 58.3542 230.324 58.375C230.345 58.3958 231.011 58.1875 232.324 57.75C233.636 57.3125 235.042 56.8438 236.542 56.3438C238.063 55.8438 238.99 55.5521 239.324 55.4688ZM222.824 64.125C223.24 63.6875 223.49 63.3958 223.574 63.25C223.657 63.1042 223.667 62.9792 223.605 62.875C223.542 62.7708 223.324 62.625 222.949 62.4375C222.553 62.2083 222.251 62.125 222.042 62.1875C221.855 62.2292 221.657 62.4479 221.449 62.8438C221.261 63.2188 221.115 63.5938 221.011 63.9688C220.928 64.3438 220.907 64.6562 220.949 64.9062C221.011 65.1562 221.136 65.2812 221.324 65.2812C221.636 65.2812 222.136 64.8958 222.824 64.125ZM227.199 57.9062C228.178 56.2188 228.667 55.0104 228.667 54.2812C228.667 53.8021 228.615 53.5312 228.511 53.4688C228.407 53.4062 228.147 53.5 227.73 53.75C227.188 54.1042 226.48 55.0312 225.605 56.5312C224.73 58.0312 224.292 59.0833 224.292 59.6875C224.292 60.4167 224.563 60.6458 225.105 60.375C225.751 60.0625 226.449 59.2396 227.199 57.9062Z"/>
</symbol><symbol viewBox="0 0 40 10" id="spoon" xmlns="http://www.w3.org/2000/svg">
<g clip-path="url(#gclip0_509_79)">
<path d="M33.5014 9.5C37.0847 9.5 39.9998 7.48129 39.9998 4.99995C39.9998 2.51861 37.0847 0.5 33.5014 0.5C30.112 0.5 27.3219 2.30637 27.0298 4.6018H22.3527V3.6552L-0.000213623 3.6552V6.34446L22.3528 6.34446V5.39798H27.0299C27.3221 7.69352 30.112 9.5 33.5014 9.5ZM21.4896 5.54839L0.863079 5.54839V4.45161H21.4896V5.54839ZM27.866 4.99995C27.866 2.95778 30.3942 1.2964 33.5015 1.2964C36.6088 1.2964 39.137 2.95778 39.137 4.99995C39.137 7.04222 36.6088 8.7037 33.5015 8.7037C30.3942 8.7037 27.866 7.04222 27.866 4.99995Z"/>
</g>
<defs>
<clipPath id="gclip0_509_79">
<rect width="40" height="9" transform="translate(-0.000213623 0.5)"/>
</clipPath>
</defs>
</symbol><symbol viewBox="0 0 23 20" id="twitter" xmlns="http://www.w3.org/2000/svg">
<path d="M22.9912 1.95021C22.9913 1.77357 22.9447 1.60007 22.8559 1.44735C22.7671 1.29464 22.6395 1.16817 22.486 1.08084C22.3324 0.993502 22.1585 0.948416 21.9819 0.95017C21.8053 0.951925 21.6323 1.00046 21.4805 1.09083C20.8952 1.43921 20.265 1.70601 19.6075 1.88383C18.6685 1.07806 17.4708 0.637129 16.2335 0.641636C14.8761 0.643198 13.5724 1.17223 12.5977 2.11702C11.623 3.06181 11.0537 4.3484 11.0099 5.70512C8.33384 5.27838 5.90849 3.88164 4.19631 1.78126C4.09315 1.65609 3.9614 1.55757 3.81217 1.494C3.66295 1.43043 3.50062 1.40368 3.33889 1.41601C3.17725 1.42932 3.02128 1.4818 2.88448 1.56892C2.74768 1.65603 2.63416 1.77516 2.55373 1.91601C2.14126 2.63582 1.90436 3.44276 1.86228 4.27131C1.8202 5.09986 1.97412 5.92666 2.31154 6.68456L2.30959 6.68651C2.15794 6.77991 2.03278 6.91066 1.94609 7.06625C1.85941 7.22185 1.81409 7.39708 1.81447 7.57519C1.81263 7.72211 1.82145 7.86898 1.84084 8.01464C1.94298 9.2729 2.50062 10.4507 3.4092 11.3271C3.34756 11.4446 3.30994 11.5731 3.29854 11.7052C3.28714 11.8373 3.30218 11.9704 3.34279 12.0967C3.7389 13.3308 4.58129 14.3727 5.7051 15.0185C4.56334 15.46 3.33052 15.614 2.11525 15.4668C1.89032 15.4386 1.66248 15.4876 1.4691 15.6059C1.27572 15.7242 1.12828 15.9047 1.05097 16.1178C0.973654 16.3309 0.97106 16.5639 1.04361 16.7787C1.11616 16.9935 1.25955 17.1772 1.45025 17.2998C3.54034 18.646 5.97393 19.3617 8.46002 19.3613C11.2793 19.393 14.03 18.4921 16.2843 16.7988C18.5385 15.1054 20.17 12.7145 20.9248 9.99801C21.2779 8.81464 21.4582 7.58648 21.46 6.35157C21.46 6.28614 21.46 6.21876 21.459 6.15138C21.9811 5.58831 22.3856 4.92668 22.6487 4.20527C22.9118 3.48387 23.0283 2.7172 22.9912 1.95021ZM19.6846 5.16212C19.5194 5.35746 19.4358 5.60891 19.4512 5.86427C19.461 6.02927 19.46 6.19527 19.46 6.35157C19.4579 7.39511 19.305 8.43287 19.0059 9.43263C18.3894 11.744 17.015 13.7817 15.103 15.2192C13.1909 16.6568 10.8517 17.4111 8.46002 17.3613C7.6009 17.3616 6.74474 17.2606 5.90924 17.0606C6.97465 16.7172 7.97083 16.1879 8.85162 15.4971C9.01385 15.3693 9.13257 15.1945 9.19151 14.9967C9.25044 14.7988 9.2467 14.5875 9.18079 14.3918C9.11489 14.1961 8.99005 14.0257 8.8234 13.9038C8.65675 13.7819 8.45647 13.7145 8.25002 13.7109C7.41885 13.698 6.62515 13.363 6.03615 12.7764C6.18557 12.7481 6.33401 12.7129 6.48147 12.6709C6.69748 12.6094 6.88651 12.477 7.01813 12.295C7.14975 12.1131 7.21629 11.8921 7.20704 11.6677C7.1978 11.4433 7.1133 11.2285 6.96715 11.058C6.82101 10.8874 6.62173 10.7711 6.40139 10.7275C5.91893 10.6323 5.46494 10.427 5.0747 10.1277C4.68447 9.82845 4.36852 9.44321 4.15139 9.00196C4.33212 9.02662 4.514 9.04194 4.69631 9.04786C4.91289 9.05113 5.1249 8.98543 5.30169 8.86026C5.47847 8.73509 5.61086 8.55694 5.67971 8.35157C5.74569 8.14433 5.74229 7.92123 5.67004 7.7161C5.59778 7.51096 5.46061 7.33499 5.27932 7.21485C4.83947 6.92182 4.47916 6.52427 4.23068 6.0578C3.98219 5.59134 3.85328 5.07052 3.85549 4.54201C3.85549 4.47561 3.85744 4.4092 3.86135 4.34377C6.10261 6.43402 9.00967 7.66621 12.0703 7.82326C12.2248 7.82934 12.3787 7.80024 12.5203 7.73816C12.6619 7.67607 12.7875 7.58262 12.8877 7.46486C12.9869 7.34596 13.0571 7.20566 13.0929 7.05501C13.1286 6.90437 13.1289 6.74748 13.0937 6.5967C13.0366 6.35806 13.0074 6.11357 13.0068 5.86818C13.0077 5.01271 13.348 4.19254 13.9529 3.58764C14.5578 2.98274 15.378 2.64251 16.2334 2.64161C16.6736 2.64043 17.1092 2.7305 17.5127 2.90615C17.9163 3.0818 18.2791 3.3392 18.5781 3.66212C18.6935 3.7862 18.8386 3.87871 18.9998 3.93085C19.161 3.98299 19.3329 3.99303 19.499 3.96001C19.9098 3.88006 20.3147 3.7724 20.7109 3.63775C20.4407 4.19072 20.0953 4.70369 19.6846 5.16212Z"/>
</symbol></svg>